<svg width="94" height="94" viewBox="0 0 94 94" fill="none" xmlns="http://www.w3.org/2000/svg">
<g clip-path="url(#clip0)">
<path d="M81.6175 35.0923H37.9222C37.1618 35.0923 36.5453 35.7088 36.5453 36.4692C36.5453 37.2297 37.1618 37.8462 37.9222 37.8462H81.6175C82.378 37.8462 82.9945 37.2297 82.9945 36.4692C82.9945 35.7088 82.378 35.0923 81.6175 35.0923Z" fill="#3F135E"/>
<path d="M81.6175 45.6183H37.9222C37.1618 45.6183 36.5453 46.2348 36.5453 46.9952C36.5453 47.7557 37.1618 48.3722 37.9222 48.3722H81.6175C82.378 48.3722 82.9945 47.7557 82.9945 46.9952C82.9945 46.2348 82.378 45.6183 81.6175 45.6183Z" fill="#3F135E"/>
<path d="M81.6175 56.1443H37.9222C37.1618 56.1443 36.5453 56.7608 36.5453 57.5212C36.5453 58.2817 37.1618 58.8982 37.9222 58.8982H81.6175C82.378 58.8982 82.9945 58.2817 82.9945 57.5212C82.9945 56.7608 82.378 56.1443 81.6175 56.1443Z" fill="#3F135E"/>
<path d="M85.9913 23.05H33.5485C29.1325 23.05 25.5397 26.6425 25.5397 31.0587V64.0353C25.5397 68.4512 29.1323 72.044 33.5485 72.044H70.306C70.699 72.044 71.0642 72.2208 71.308 72.5294L83.1783 87.5571C83.6461 88.1494 84.3287 88.4721 85.0434 88.4721C85.309 88.4721 85.5793 88.4275 85.8444 88.3354C86.8224 87.9957 87.4543 87.1073 87.4543 86.072V71.9072C91.1675 71.2136 94 67.9308 94 64.0353V31.0585C94 26.6425 90.4074 23.05 85.9913 23.05ZM91.2461 64.0353C91.2461 66.8951 88.9194 69.2515 86.0596 69.2879C85.3061 69.2976 84.7003 69.9112 84.7003 70.6648V85.0411L73.4691 70.8224C72.7 69.8484 71.547 69.2899 70.306 69.2899H33.5485C30.651 69.2899 28.2936 66.9326 28.2936 64.0351V31.0585C28.2936 28.1611 30.6508 25.8037 33.5485 25.8037H85.9913C88.8888 25.8037 91.2461 28.1611 91.2461 31.0585V64.0353Z" fill="#3F135E"/>
<path d="M20.286 45.8178C19.3442 45.9515 18.5007 46.4364 17.911 47.1829L8.45211 59.1579V47.1562C8.45211 46.4026 7.84625 45.789 7.09278 45.7793C4.70037 45.7488 2.75391 43.7776 2.75391 41.385V12.6781C2.75391 10.2541 4.72607 8.28192 7.15006 8.28192H52.803C55.227 8.28192 57.1992 10.2541 57.1992 12.6781V17.9898C57.1992 18.7503 57.8157 19.3668 58.5761 19.3668C59.3366 19.3668 59.9531 18.7503 59.9531 17.9898V12.6781C59.9531 8.73558 56.7455 5.52802 52.803 5.52802H7.15006C3.20757 5.52802 0 8.73558 0 12.6781V41.385C0 44.8121 2.45483 47.7076 5.69838 48.3843V60.5687C5.69838 61.5469 6.29543 62.3864 7.21964 62.7074C7.47025 62.7944 7.72544 62.8366 7.9766 62.8366C8.65167 62.8366 9.297 62.5315 9.73891 61.9721L20.0723 48.8899C20.2214 48.701 20.4349 48.5784 20.6732 48.5444C21.4261 48.4375 21.9499 47.7404 21.8429 46.9875C21.736 46.2346 21.04 45.7104 20.286 45.8178Z" fill="#3F135E"/>
</g>
<defs>
<clipPath id="clip0">
<rect width="94" height="94" fill="white"/>
</clipPath>
</defs>
</svg>
