<svg width="39" height="49" viewBox="0 0 39 49" fill="none" xmlns="http://www.w3.org/2000/svg">
<path d="M38.4029 9.3422H3.52097V0.0546293C3.4713 0.0546293 3.31735 0.0546293 3.05415 0.016809C2.79095 -0.0210113 2.55754 0.016809 2.3291 0.016809C0.776367 -0.00120064 0 0.427429 0 1.3027V22.4064C0.42962 22.4675 0.863195 22.4891 1.29615 22.4712C2.77936 22.4712 3.52097 22.012 3.52097 21.0935V13.1675H34.8819V40.9221H25.9429C25.5071 40.9173 25.0811 41.063 24.7262 41.3381L24.314 41.5975C24.1678 41.6661 24.0295 41.7532 23.9018 41.8568L20.4653 44.018L16.2044 41.3165C15.8296 41.0879 15.4153 40.9462 14.9877 40.9005H3.56566C3.46838 41.3608 3.43325 41.834 3.46137 42.3053C3.46137 43.9261 4.18146 44.7312 5.61169 44.7312H14.5755L20.4454 48.4159L26.3203 44.7528H38.4029C38.4227 44.6987 38.4029 9.3422 38.4029 9.3422Z" fill="#53B51A"/>
<path d="M9.59949 30.3382C11.2177 30.3382 12.5295 28.911 12.5295 27.1505C12.5295 25.39 11.2177 23.9628 9.59949 23.9628C7.9813 23.9628 6.66949 25.39 6.66949 27.1505C6.66949 28.911 7.9813 30.3382 9.59949 30.3382Z" fill="#331360"/>
<path d="M19.0847 30.3382C20.7029 30.3382 22.0147 28.911 22.0147 27.1505C22.0147 25.39 20.7029 23.9628 19.0847 23.9628C17.4665 23.9628 16.1547 25.39 16.1547 27.1505C16.1547 28.911 17.4665 30.3382 19.0847 30.3382Z" fill="#331360"/>
<path d="M28.575 30.3382C30.1931 30.3382 31.5049 28.911 31.5049 27.1505C31.5049 25.39 30.1931 23.9628 28.575 23.9628C26.9568 23.9628 25.645 25.39 25.645 27.1505C25.645 28.911 26.9568 30.3382 28.575 30.3382Z" fill="#331360"/>
</svg>
