<svg width="195" height="52" viewBox="0 0 195 52" fill="none" xmlns="http://www.w3.org/2000/svg">
<g clip-path="url(#clip0)">
<path d="M71.73 24.94H83.93V31H71.73V48H64V10H87.79C87.9131 10.693 87.97 11.3962 87.96 12.1C87.96 14.7667 86.4267 16.1 83.36 16.1H71.73V24.94Z" fill="#3F135E"/>
<path d="M101.62 48.38C100.69 48.5984 99.7329 48.676 98.78 48.61C95.5334 48.61 93.9067 47.04 93.9 43.9V8.00002C94.2288 7.92534 94.5633 7.8785 94.9 7.86002C95.4281 7.80235 95.9588 7.77231 96.49 7.77002C99.8967 7.77002 101.6 9.26669 101.6 12.26L101.62 48.38Z" fill="#3F135E"/>
<path d="M133.92 34.48C133.986 37.1602 133.432 39.8195 132.3 42.25C131.326 44.3557 129.717 46.104 127.7 47.25C125.492 48.4198 123.018 48.9953 120.52 48.92C116.28 48.92 112.997 47.6533 110.67 45.12C108.343 42.5866 107.18 39.1066 107.18 34.68C107.125 32.0495 107.719 29.446 108.91 27.1C109.975 25.0017 111.634 23.2629 113.68 22.1C115.847 20.9236 118.285 20.3342 120.75 20.39C124.99 20.39 128.243 21.63 130.51 24.11C132.777 26.59 133.913 30.0466 133.92 34.48ZM126.14 34.54C126.14 29.0533 124.303 26.31 120.63 26.31C119.79 26.2719 118.954 26.4561 118.208 26.8442C117.462 27.2322 116.831 27.8103 116.38 28.52C115.299 30.3531 114.784 32.465 114.9 34.59C114.767 36.7858 115.27 38.9733 116.35 40.89C116.785 41.5973 117.401 42.1759 118.134 42.5661C118.867 42.9564 119.69 43.1441 120.52 43.11C124.273 43.11 126.147 40.2533 126.14 34.54Z" fill="#3F135E"/>
<path d="M154.18 43.16C155.43 43.169 156.668 42.9098 157.81 42.4C158.845 41.9526 159.76 41.2673 160.48 40.4C161.009 40.9995 161.447 41.6734 161.78 42.4C162.144 43.066 162.359 43.803 162.41 44.56C162.405 44.9972 162.295 45.4268 162.087 45.8117C161.88 46.1967 161.582 46.5255 161.22 46.77C159.32 48.21 156.62 48.93 153.1 48.93C150.552 48.9893 148.032 48.3936 145.78 47.2C143.736 46.0814 142.09 44.3551 141.07 42.26C139.946 39.8174 139.402 37.1478 139.48 34.46C139.391 31.7974 139.986 29.1564 141.21 26.79C142.331 24.7383 144.041 23.0698 146.12 22C148.278 20.8681 150.683 20.2908 153.12 20.32C154.554 20.3114 155.984 20.4725 157.38 20.8C158.569 21.0706 159.702 21.5442 160.73 22.2C161.309 22.5326 161.818 22.9741 162.23 23.5C162.52 23.9386 162.67 24.4546 162.66 24.98C162.628 25.6756 162.451 26.3568 162.14 26.98C161.807 27.7434 161.369 28.4569 160.84 29.1C160.015 28.2215 159.022 27.5176 157.92 27.03C156.774 26.4938 155.525 26.214 154.26 26.21C153.298 26.1425 152.333 26.2937 151.438 26.6522C150.542 27.0107 149.74 27.5672 149.09 28.28C147.92 29.66 147.33 31.7 147.33 34.38C147.33 37.22 147.907 39.3867 149.06 40.88C149.668 41.6423 150.451 42.2473 151.342 42.644C152.233 43.0408 153.206 43.2178 154.18 43.16Z" fill="#3F135E"/>
<path d="M177.17 37.2C176.5 36.4329 176.066 35.4883 175.92 34.48V48H168.2V8.00002C168.529 7.92534 168.863 7.8785 169.2 7.86002C169.728 7.80235 170.259 7.77231 170.79 7.77002C174.19 7.77002 175.9 9.29002 175.9 12.31V32.66C176.145 31.6053 176.65 30.6288 177.37 29.82L183.37 22.96C183.969 22.2259 184.689 21.6001 185.5 21.11C186.189 20.7433 186.96 20.5575 187.74 20.57C189.542 20.6263 191.267 21.3088 192.62 22.5L183.37 33.17L194 47.25C192.683 48.1562 191.118 48.6314 189.52 48.61C188.342 48.6536 187.17 48.4314 186.09 47.96C185.051 47.3977 184.149 46.6122 183.45 45.66L177.17 37.2Z" fill="#3F135E"/>
<path d="M44.62 10H4.09V0.07C3.91014 0.0600943 3.72986 0.0600943 3.55 0.07L2.71 0C0.9 0 0 0.47 0 1.4V23.94C0.497247 24.0043 0.999209 24.0243 1.5 24C3.23 24 4.09 23.51 4.09 22.53V14.07H40.53V43.71H30.12C29.6148 43.7111 29.1224 43.8682 28.71 44.16L28.23 44.43C28.0617 44.5083 27.901 44.602 27.75 44.71L23.75 47.02L18.75 44.16C18.312 43.9155 17.8289 43.7625 17.33 43.71H4.09C3.98823 44.2065 3.95792 44.715 4 45.22C4 46.94 4.83 47.81 6.5 47.81H16.93L23.76 51.74L30.57 47.81H44.57C44.64 47.75 44.62 10 44.62 10Z" fill="white"/>
<path d="M11.15 32.41C13.0278 32.41 14.55 30.8878 14.55 29.01C14.55 27.1322 13.0278 25.61 11.15 25.61C9.27223 25.61 7.75 27.1322 7.75 29.01C7.75 30.8878 9.27223 32.41 11.15 32.41Z" fill="#331360"/>
<path d="M22.18 32.41C24.0578 32.41 25.58 30.8878 25.58 29.01C25.58 27.1322 24.0578 25.61 22.18 25.61C20.3023 25.61 18.78 27.1322 18.78 29.01C18.78 30.8878 20.3023 32.41 22.18 32.41Z" fill="#331360"/>
<path d="M33.2 32.41C35.0778 32.41 36.6 30.8878 36.6 29.01C36.6 27.1322 35.0778 25.61 33.2 25.61C31.3222 25.61 29.8 27.1322 29.8 29.01C29.8 30.8878 31.3222 32.41 33.2 32.41Z" fill="#331360"/>
</g>
<defs>
<clipPath id="clip0">
<rect width="194.02" height="51.74" fill="white"/>
</clipPath>
</defs>
</svg>
