<svg width="97" height="97" viewBox="0 0 97 97" fill="none" xmlns="http://www.w3.org/2000/svg">
<g clip-path="url(#clip0)">
<path d="M96.6048 41.3688L80.3696 20.2788C79.7686 19.4988 78.6726 19.3064 77.8415 19.8348L67.3595 26.5012H53.6885C53.5116 26.5012 53.3355 26.5389 53.1653 26.5885L42.5655 29.6398L31.5669 26.6314L20.8798 19.8348C20.0628 19.3153 18.9867 19.4914 18.3792 20.2448L0.421821 42.4878C-0.223504 43.287 -0.116937 44.4541 0.661597 45.1239L10.0736 53.2237L18.5176 64.6027C16.048 67.2336 16.0961 71.3831 18.6656 73.9533C19.8045 75.0915 21.2528 75.7346 22.7425 75.8841C22.6907 76.2216 22.6641 76.5642 22.6641 76.912C22.6641 78.7074 23.3634 80.3955 24.6326 81.6646C25.9025 82.9346 27.5906 83.6339 29.3859 83.6339C29.4104 83.6339 29.4341 83.6324 29.4577 83.6317C29.457 83.6776 29.4548 83.7227 29.4548 83.7686C29.4548 85.564 30.1541 87.252 31.4233 88.522C32.6932 89.7911 34.3813 90.4905 36.1767 90.4905C36.5311 90.4905 36.8819 90.4616 37.2261 90.4083C37.3718 91.9033 38.0164 93.3582 39.1591 94.5008C40.469 95.8115 42.1903 96.4664 43.9117 96.4664C45.633 96.4664 47.3544 95.8115 48.665 94.5008L49.693 93.4729L50.1244 93.8207C51.4239 95.0796 53.1113 95.7086 54.7986 95.7086C56.5199 95.7086 58.2413 95.0536 59.5512 93.743C60.8885 92.4057 61.5434 90.6407 61.516 88.8846C63.2714 88.9112 65.0372 88.257 66.3744 86.9205C67.7102 85.584 68.3652 83.8204 68.3393 82.065C70.1679 82.0939 71.9026 81.3916 73.197 80.0972C74.5343 78.7599 75.1892 76.9949 75.1618 75.2388C76.9187 75.2654 78.683 74.6112 80.0203 73.2739C82.3026 70.9916 82.5964 67.4638 80.9039 64.8595L87.0692 51.9471L96.3384 43.9709C97.1043 43.3115 97.2213 42.1688 96.6048 41.3688ZM20.2715 23.9562L27.9562 28.8427L11.2392 49.2089L4.54021 43.4432L20.2715 23.9562ZM21.3557 67.1367L23.675 64.8174C23.7453 64.7471 23.8193 64.6805 23.8948 64.6183C24.3484 64.2483 24.8975 64.0277 25.4792 63.9752C25.4955 63.9737 25.5125 63.9737 25.5288 63.973C25.6117 63.9663 25.6946 63.9619 25.7782 63.9626C26.573 63.9737 27.3116 64.2986 27.8592 64.8766C28.9338 66.0125 28.8761 67.8686 27.7305 69.0142L25.4814 71.2632C24.344 72.4007 22.4931 72.4007 21.3557 71.2632C20.2182 70.125 20.2182 68.2741 21.3557 67.1367ZM27.3227 78.9746C26.7713 78.424 26.4679 77.6913 26.4679 76.912C26.4679 76.1328 26.7713 75.4001 27.3227 74.8488L31.82 70.3515C32.6814 69.4901 34.0357 69.254 35.1369 69.7787C36.2721 70.3196 36.9108 71.5518 36.7443 72.7914C36.6555 73.453 36.3476 74.0761 35.8755 74.549L31.4492 78.9746C30.8979 79.5259 30.1652 79.8293 29.3859 79.8293C28.6067 79.8293 27.874 79.5259 27.3227 78.9746ZM34.1134 85.8311C33.5621 85.2805 33.2586 84.5479 33.2586 83.7686C33.2586 82.9893 33.5621 82.2567 34.1134 81.7053L38.6099 77.208C39.5313 76.2874 41.0092 76.0891 42.137 76.7455C43.1672 77.345 43.7067 78.5216 43.5298 79.6939C43.4329 80.3385 43.1265 80.9446 42.6654 81.4056L38.2399 85.8311C37.6886 86.3825 36.9559 86.6859 36.1767 86.6859C35.3974 86.6859 34.6647 86.3825 34.1134 85.8311ZM41.8484 91.8107C40.711 90.6733 40.711 88.8224 41.8484 87.685L44.1677 85.3656C44.238 85.2953 44.3113 85.2295 44.3868 85.1673C44.389 85.1658 44.3905 85.1643 44.392 85.1629C44.7694 84.8565 45.2127 84.6515 45.6856 84.5619C45.6967 84.5605 45.7078 84.559 45.7189 84.5575C45.8003 84.5427 45.8832 84.5309 45.9661 84.5235C45.9994 84.5205 46.0327 84.5205 46.0667 84.5183C46.1348 84.5146 46.2021 84.5101 46.271 84.5109C47.065 84.522 47.8043 84.8461 48.352 85.4248C48.4193 85.4959 48.4822 85.5699 48.54 85.6461C49.4147 86.7895 49.297 88.4879 48.2114 89.5743L45.9742 91.8115C44.8367 92.9489 42.9859 92.9482 41.8484 91.8107ZM77.3302 70.5838C76.1927 71.722 74.3418 71.7213 73.2044 70.5838C73.1629 70.5424 73.1193 70.5039 73.0749 70.4677L60.8448 58.1088C60.1055 57.3621 58.9014 57.3562 58.1547 58.0955C57.408 58.834 57.4021 60.0381 58.1406 60.7848L70.5032 73.2762C70.5047 73.2776 70.5062 73.2791 70.5076 73.2806C71.6451 74.4181 71.6451 76.2697 70.5076 77.4071C69.9563 77.9585 69.2236 78.2619 68.4444 78.2619C67.6644 78.2619 66.9317 77.9585 66.3811 77.4071L58.111 69.0512C57.3725 68.3045 56.1684 68.2986 55.4217 69.0371C54.675 69.7765 54.6691 70.9805 55.4076 71.7272L63.5512 79.9551C63.5926 80.0069 63.637 80.0565 63.6844 80.1039C64.8218 81.2413 64.8218 83.0929 63.6844 84.2304C62.5462 85.3679 60.6946 85.3671 59.5571 84.2297L55.0435 79.6687C54.3042 78.922 53.1002 78.9153 52.3534 79.6547C51.6067 80.3932 51.6008 81.5973 52.3394 82.344L56.7271 86.7769C56.7686 86.8287 56.813 86.879 56.8611 86.9264C57.9986 88.0639 57.9986 89.9155 56.8611 91.0529C55.7236 92.1911 53.8728 92.1904 52.7353 91.0529C52.6043 90.9219 52.4504 90.8213 52.3039 90.7088C52.1795 90.6141 52.147 90.5482 52.2091 90.3972C52.272 90.2441 52.366 90.1057 52.4289 89.9517C52.4985 89.78 52.5547 89.6032 52.6095 89.4256C52.9011 88.4857 52.9869 87.4748 52.8559 86.4994C52.6043 84.6278 51.5749 82.939 50.0149 81.8704C49.172 81.2939 48.1966 80.9157 47.1857 80.7736C47.6756 78.6127 47.0872 76.2697 45.5568 74.6526C44.2972 73.322 42.5959 72.5753 40.7657 72.5502C40.6991 72.5494 40.6325 72.5494 40.5652 72.5502C40.6059 70.8036 39.9709 69.0682 38.7668 67.7961C37.5065 66.4655 35.8052 65.7187 33.9757 65.6936C33.4318 65.6862 32.8827 65.7439 32.3528 65.866C32.1264 64.2904 31.3323 62.8325 30.1297 61.7898C28.9345 60.7552 27.4315 60.1809 25.8307 60.1587C24.1456 60.1343 22.4902 60.756 21.2387 61.886L13.8863 51.979L31.4759 30.55L37.0817 32.0834L29.7604 45.0025C28.8753 46.5647 28.6518 48.3779 29.1306 50.1081C29.6094 51.8391 30.7328 53.2792 32.2951 54.1643C32.3928 54.2198 32.4912 54.2724 32.5911 54.3227C32.5985 54.3264 32.6059 54.3301 32.6141 54.3338C32.8768 54.4648 33.1469 54.5773 33.4207 54.672C34.6958 55.1138 36.0731 55.1619 37.4014 54.7948C39.1317 54.316 40.5718 53.1919 41.4569 51.6304L46.2147 43.2345L54.7098 43.8369L77.3309 66.4573C78.4676 67.5955 78.4676 69.4464 77.3302 70.5838ZM78.1183 61.8653L56.8974 40.6451C56.8574 40.6044 56.8152 40.5659 56.7715 40.5296C56.4659 40.275 56.087 40.1211 55.6874 40.093L45.2859 39.3552C44.5666 39.3056 43.8517 39.6882 43.4965 40.315L38.1474 49.7551C37.7633 50.433 37.138 50.9207 36.3868 51.1286C35.6364 51.3366 34.849 51.2389 34.1704 50.8548C33.4925 50.4707 33.0048 49.8454 32.7968 49.0942C32.5889 48.3431 32.6858 47.5557 33.0707 46.8778L40.2114 34.2754L43.105 33.4429C43.1243 33.437 43.1428 33.4296 43.162 33.4236L53.9616 30.3051H67.0102L83.3002 51.0132L78.1183 61.8653ZM85.7919 48.0278L70.7274 28.8671L78.4158 23.9776L92.4923 42.2621L85.7919 48.0278Z" fill="#0052D0"/>
<path d="M58.7653 22.9298C59.2522 22.9298 59.7392 22.744 60.1107 22.3725L73.103 9.38016C73.846 8.63715 73.846 7.43308 73.103 6.69007C72.36 5.94706 71.1559 5.94706 70.4129 6.69007L57.4206 19.6824C56.6776 20.4254 56.6776 21.6295 57.4206 22.3725C57.7921 22.744 58.279 22.9298 58.7653 22.9298Z" fill="#0052D0"/>
<path d="M36.8893 22.3725C37.2608 22.744 37.7478 22.9298 38.2347 22.9298C38.721 22.9298 39.2079 22.744 39.5794 22.3725C40.3224 21.6295 40.3224 20.4254 39.5794 19.6824L26.5871 6.69007C25.8441 5.94706 24.64 5.94706 23.897 6.69007C23.154 7.43308 23.154 8.63715 23.897 9.38016L36.8893 22.3725Z" fill="#0052D0"/>
<path d="M48.5 22.9297C49.5501 22.9297 50.4019 22.0779 50.4019 21.0278V10.2756C50.4019 9.22546 49.5501 8.37366 48.5 8.37366C47.4499 8.37366 46.5981 9.22546 46.5981 10.2756V21.0278C46.5981 22.0779 47.4499 22.9297 48.5 22.9297Z" fill="#0052D0"/>
<path d="M46.7446 3.38205C47.0465 4.11396 47.7992 4.59425 48.5932 4.55281C49.3777 4.51211 50.0667 3.98223 50.3094 3.23552C50.5529 2.48289 50.288 1.62517 49.6574 1.14561C49.0143 0.655699 48.1174 0.628317 47.4447 1.07309C46.6943 1.56892 46.4034 2.55615 46.7446 3.38205Z" fill="#0052D0"/>
</g>
<defs>
<clipPath id="clip0">
<rect width="97" height="97" fill="white"/>
</clipPath>
</defs>
</svg>
