<svg width="23" height="23" viewBox="0 0 23 23" fill="none" xmlns="http://www.w3.org/2000/svg">
<path d="M15.8125 0H7.1875C3.21856 0 0 3.21856 0 7.1875V15.8125C0 19.7814 3.21856 23 7.1875 23H15.8125C19.7814 23 23 19.7814 23 15.8125V7.1875C23 3.21856 19.7814 0 15.8125 0ZM20.8438 15.8125C20.8438 18.5869 18.5869 20.8438 15.8125 20.8438H7.1875C4.41313 20.8438 2.15625 18.5869 2.15625 15.8125V7.1875C2.15625 4.41313 4.41313 2.15625 7.1875 2.15625H15.8125C18.5869 2.15625 20.8438 4.41313 20.8438 7.1875V15.8125Z" fill="white"/>
<path d="M11.5 5.75C8.32456 5.75 5.75 8.32456 5.75 11.5C5.75 14.6754 8.32456 17.25 11.5 17.25C14.6754 17.25 17.25 14.6754 17.25 11.5C17.25 8.32456 14.6754 5.75 11.5 5.75ZM11.5 15.0938C9.51912 15.0938 7.90625 13.4809 7.90625 11.5C7.90625 9.51769 9.51912 7.90625 11.5 7.90625C13.4809 7.90625 15.0938 9.51769 15.0938 11.5C15.0938 13.4809 13.4809 15.0938 11.5 15.0938Z" fill="white"/>
<path d="M17.6812 6.08486C18.1044 6.08486 18.4474 5.74183 18.4474 5.31867C18.4474 4.89552 18.1044 4.55249 17.6812 4.55249C17.2581 4.55249 16.915 4.89552 16.915 5.31867C16.915 5.74183 17.2581 6.08486 17.6812 6.08486Z" fill="white"/>
</svg>
