<svg width="167" height="49" viewBox="0 0 167 49" fill="none" xmlns="http://www.w3.org/2000/svg">
<path d="M61.7335 23.3468H72.2368V29.0306H61.7335V44.9746H55.0392V9.36951H75.5591C75.6634 10.0187 75.7116 10.6772 75.7031 11.3362C75.7031 13.8143 74.3789 15.0534 71.7303 15.0534H61.7335V23.3468Z" fill="#3F135E"/>
<path d="M87.4579 45.2935C86.6574 45.4934 85.8344 45.5662 85.0146 45.5096C82.2138 45.5096 80.8134 44.0382 80.8134 41.0954V7.51104C81.1045 7.44203 81.4 7.39688 81.6973 7.37597C82.151 7.32391 82.6068 7.29686 83.063 7.29492C85.993 7.29492 87.4579 8.69427 87.4579 11.493V45.2935Z" fill="#3F135E"/>
<path d="M115.253 32.2724C115.311 34.7841 114.835 37.2764 113.863 39.5555C113.011 41.5149 111.624 43.1398 109.89 44.2074C107.989 45.3012 105.861 45.841 103.712 45.7742C100.07 45.7742 97.2445 44.5874 95.2349 42.2137C93.2253 39.84 92.2238 36.5803 92.2305 32.4345C92.1814 29.9723 92.6932 27.5352 93.7203 25.3405C94.6427 23.3852 96.0724 21.7677 97.8322 20.6886C99.6943 19.5823 101.789 19.0236 103.911 19.0677C107.552 19.0677 110.353 20.2275 112.313 22.5472C114.273 24.8668 115.253 28.1086 115.253 32.2724ZM108.564 32.3264C108.564 27.1901 106.983 24.6219 103.821 24.6219C103.098 24.5878 102.378 24.7616 101.736 25.1257C101.093 25.4899 100.55 26.0317 100.161 26.6966C99.3138 28.0725 98.89 29.9672 98.89 32.3804C98.89 34.9306 99.3055 36.8973 100.136 38.2804C100.512 38.941 101.043 39.4809 101.674 39.8445C102.305 40.2082 103.014 40.3826 103.727 40.3497C106.952 40.3497 108.564 37.6753 108.564 32.3264Z" fill="#3F135E"/>
<path d="M132.694 40.4038C133.771 40.4127 134.837 40.1676 135.818 39.6852C136.707 39.2812 137.495 38.6535 138.117 37.8537C138.574 38.4292 138.952 39.0734 139.239 39.7663C139.549 40.3906 139.731 41.0795 139.776 41.787C139.772 42.197 139.677 42.5998 139.499 42.9611C139.32 43.3224 139.065 43.6314 138.753 43.8617C137.124 45.2052 134.795 45.877 131.765 45.877C129.572 45.9334 127.402 45.3752 125.464 44.2561C123.704 43.2129 122.287 41.5979 121.411 39.6366C120.442 37.3477 119.973 34.8456 120.041 32.3265C119.967 29.8358 120.48 27.3661 121.53 25.1515C122.5 23.2328 123.97 21.6702 125.757 20.6617C127.611 19.6101 129.675 19.072 131.765 19.0948C132.999 19.0874 134.229 19.2379 135.43 19.5433C136.453 19.7933 137.428 20.2358 138.311 20.8508C138.813 21.1597 139.254 21.5749 139.607 22.0718C139.855 22.4798 139.981 22.9608 139.969 23.4495C139.938 24.0875 139.79 24.7122 139.532 25.2865C139.242 26.0028 138.865 26.6733 138.41 27.2802C137.699 26.4562 136.843 25.7965 135.892 25.3406C134.907 24.8358 133.833 24.5721 132.744 24.5679C130.787 24.5679 129.306 25.2145 128.299 26.5076C127.293 27.8007 126.788 29.7043 126.785 32.2184C126.785 34.8767 127.281 36.9064 128.274 38.3075C129.268 39.7087 130.741 40.4074 132.694 40.4038Z" fill="#3F135E"/>
<path d="M152.459 34.8227C151.882 34.1031 151.508 33.2176 151.382 32.2725V44.9747H144.762V7.51104C145.051 7.44133 145.345 7.39617 145.641 7.37597C146.094 7.32391 146.55 7.29686 147.006 7.29492C149.936 7.29492 151.401 8.71228 151.401 11.547V30.576C151.614 29.5881 152.051 28.6741 152.673 27.9178L157.852 21.4883C158.365 20.7996 158.986 20.2144 159.685 19.7594C160.277 19.4157 160.94 19.2409 161.612 19.2515C163.164 19.301 164.651 19.9415 165.813 21.0615L157.867 31.0514L167 44.2291C166 44.9343 164.856 45.3634 163.669 45.4792C162.482 45.595 161.286 45.394 160.187 44.8937C159.291 44.3662 158.516 43.6278 157.917 42.7325L152.459 34.8227Z" fill="#3F135E"/>
<path d="M38.4029 9.3422H3.52097V0.0546293C3.4713 0.0546293 3.31735 0.0546293 3.05415 0.016809C2.79095 -0.0210113 2.55754 0.016809 2.3291 0.016809C0.776367 -0.00120064 0 0.427429 0 1.3027V22.4064C0.42962 22.4675 0.863195 22.4891 1.29615 22.4712C2.77936 22.4712 3.52097 22.012 3.52097 21.0935V13.1675H34.8819V40.9221H25.9429C25.5071 40.9173 25.0811 41.063 24.7262 41.3381L24.314 41.5975C24.1678 41.6661 24.0295 41.7532 23.9018 41.8568L20.4653 44.018L16.2044 41.3165C15.8296 41.0879 15.4153 40.9462 14.9877 40.9005H3.56566C3.46838 41.3608 3.43325 41.834 3.46137 42.3053C3.46137 43.9261 4.18146 44.7312 5.61169 44.7312H14.5755L20.4454 48.4159L26.3203 44.7528H38.4029C38.4227 44.6987 38.4029 9.3422 38.4029 9.3422Z" fill="#53B51A"/>
<path d="M9.59949 30.3382C11.2177 30.3382 12.5295 28.911 12.5295 27.1505C12.5295 25.39 11.2177 23.9628 9.59949 23.9628C7.9813 23.9628 6.66949 25.39 6.66949 27.1505C6.66949 28.911 7.9813 30.3382 9.59949 30.3382Z" fill="#331360"/>
<path d="M19.0847 30.3382C20.7029 30.3382 22.0147 28.911 22.0147 27.1505C22.0147 25.39 20.7029 23.9628 19.0847 23.9628C17.4665 23.9628 16.1547 25.39 16.1547 27.1505C16.1547 28.911 17.4665 30.3382 19.0847 30.3382Z" fill="#331360"/>
<path d="M28.575 30.3382C30.1931 30.3382 31.5049 28.911 31.5049 27.1505C31.5049 25.39 30.1931 23.9628 28.575 23.9628C26.9568 23.9628 25.645 25.39 25.645 27.1505C25.645 28.911 26.9568 30.3382 28.575 30.3382Z" fill="#331360"/>
</svg>
