<svg width="92" height="92" viewBox="0 0 92 92" fill="none" xmlns="http://www.w3.org/2000/svg">
<path d="M36.4519 71.4989C36.1222 71.4988 35.806 71.3678 35.5729 71.1346L20.7037 56.2654C20.5142 56.0759 20.3909 55.8302 20.3524 55.5649C20.3139 55.2997 20.3621 55.0291 20.4899 54.7934C21.0543 53.7528 21.6188 52.7234 22.1969 51.7201C25.6552 45.6356 29.6596 39.878 34.1606 34.5186C43.8529 22.8303 56.1927 13.6218 70.1562 7.65711C75.7786 5.18112 81.7216 3.50912 87.8103 2.69036C87.9917 2.67395 88.1745 2.69761 88.3458 2.75966C88.517 2.82171 88.6725 2.92064 88.8013 3.04944C88.9302 3.17824 89.0291 3.33378 89.0911 3.50504C89.1532 3.6763 89.1768 3.8591 89.1604 4.04052C89.1256 4.4396 88.2081 13.9865 81.8502 26.8341C81.7024 27.1272 81.4447 27.35 81.1333 27.4538C80.8219 27.5577 80.4821 27.5341 80.188 27.3884C79.8939 27.2427 79.6694 26.9865 79.5634 26.6759C79.4574 26.3652 79.4786 26.0253 79.6223 25.7301C82.8766 19.3167 85.182 12.4645 86.4663 5.38819C80.2265 6.42879 56.5191 11.8444 36.0603 36.1224C31.6558 41.3695 27.7371 47.0059 24.3527 52.9621C23.9349 53.6882 23.5259 54.4242 23.1194 55.1701L36.6707 68.7215C37.4167 68.3154 38.151 67.9047 38.8737 67.4894C44.8286 64.1082 50.4646 60.1938 55.7122 55.7943C59.8952 52.2746 63.7814 48.4166 67.3316 44.2594C67.5459 44.0082 67.8512 43.8524 68.1805 43.8262C68.5097 43.8001 68.8358 43.9059 69.087 44.1202C69.3383 44.3345 69.4941 44.6399 69.5202 44.9691C69.5463 45.2983 69.4406 45.6244 69.2263 45.8757C65.5877 50.1322 61.6055 54.0824 57.3197 57.6865C51.958 62.1829 46.1993 66.1834 40.1145 69.639C39.1199 70.2146 38.0855 70.7791 37.0437 71.3435C36.8624 71.4438 36.659 71.4972 36.4519 71.4989Z" fill="#53B51A"/>
<path d="M74.1458 38.6897C73.8963 38.6901 73.6527 38.6146 73.4471 38.4734C73.1748 38.2877 72.9874 38.0014 72.9261 37.6776C72.8648 37.3538 72.9346 37.0189 73.1201 36.7465C73.8573 35.6661 74.5573 34.6081 75.2199 33.5526C75.3953 33.2729 75.6747 33.0742 75.9966 33.0004C76.3185 32.9266 76.6565 32.9837 76.9362 33.1591C77.216 33.3346 77.4146 33.6139 77.4884 33.9358C77.5622 34.2577 77.5051 34.5957 77.3297 34.8754C76.6497 35.9571 75.9336 37.0399 75.1777 38.1477C75.0631 38.3155 74.9091 38.4526 74.7292 38.5471C74.5493 38.6416 74.349 38.6906 74.1458 38.6897Z" fill="#53B51A"/>
<path d="M35.8389 88.3511C35.6552 88.3511 35.4738 88.3104 35.3077 88.2319C35.1416 88.1534 34.995 88.039 34.8783 87.8971C34.7617 87.7551 34.678 87.5891 34.6332 87.4109C34.5884 87.2327 34.5837 87.0469 34.6193 86.8666L38.2807 68.3274C38.3451 68.0044 38.5351 67.7202 38.8089 67.5372C39.0827 67.3541 39.418 67.2872 39.7411 67.3511C40.0642 67.415 40.3487 67.6045 40.5322 67.878C40.7157 68.1514 40.7832 68.4866 40.7199 68.8098L37.6864 84.1676L52.8826 72.772C53.7243 72.1389 54.4032 71.3145 54.8631 70.3669C55.3229 69.4193 55.5505 68.3759 55.5269 67.3229L55.2783 56.769C55.2706 56.4394 55.3941 56.1203 55.6217 55.8818C55.8492 55.6433 56.1622 55.505 56.4917 55.4971C56.6558 55.4896 56.8197 55.5154 56.9736 55.5729C57.1275 55.6305 57.2681 55.7186 57.387 55.832C57.5058 55.9454 57.6005 56.0817 57.6652 56.2327C57.7299 56.3837 57.7634 56.5463 57.7635 56.7105L58.0122 67.2644C58.0452 68.7132 57.7324 70.1489 57.0998 71.4527C56.4672 72.7564 55.5329 73.8906 54.3745 74.7612L36.5849 88.1024C36.3697 88.2638 36.1079 88.3511 35.8389 88.3511Z" fill="#53B51A"/>
<path d="M4.73427 57.2464C4.50339 57.2464 4.27706 57.1821 4.08066 57.0607C3.88426 56.9394 3.72554 56.7657 3.62228 56.5592C3.51903 56.3527 3.47532 56.1215 3.49605 55.8915C3.51679 55.6616 3.60115 55.4419 3.73968 55.2572L17.0822 37.4677C17.9566 36.3137 19.0914 35.3828 20.394 34.7509C21.6966 34.1189 23.1301 33.8038 24.5777 33.8312L35.1328 34.0798C35.4625 34.0876 35.7757 34.226 36.0034 34.4646C36.231 34.7033 36.3546 35.0226 36.3468 35.3523C36.3391 35.682 36.2007 35.9952 35.962 36.2228C35.7234 36.4505 35.4041 36.5741 35.0744 36.5663L24.5192 36.3177C23.4662 36.2917 22.4222 36.5181 21.4744 36.9779C20.5267 37.4377 19.7027 38.1176 19.0714 38.9608L7.67454 54.1557L23.0336 51.1234C23.1939 51.0915 23.3589 51.0914 23.5192 51.1232C23.6795 51.1551 23.832 51.2183 23.9678 51.3091C24.1037 51.3999 24.2203 51.5167 24.3111 51.6526C24.4018 51.7886 24.4648 51.9411 24.4965 52.1015C24.5282 52.2618 24.528 52.4268 24.4958 52.5871C24.4637 52.7473 24.4003 52.8997 24.3092 53.0354C24.2181 53.1711 24.1012 53.2876 23.9651 53.378C23.829 53.4685 23.6763 53.5313 23.5159 53.5627L4.97297 57.2228C4.89437 57.2384 4.81442 57.2463 4.73427 57.2464Z" fill="#53B51A"/>
<path d="M83.5783 21.0655C83.2486 21.0655 82.9324 20.9344 82.6993 20.7013L71.1371 9.13911C71.0184 9.02443 70.9237 8.88724 70.8585 8.73556C70.7934 8.58388 70.7591 8.42074 70.7576 8.25566C70.7562 8.09059 70.7877 7.92688 70.8502 7.77409C70.9127 7.6213 71.005 7.48249 71.1217 7.36575C71.2385 7.24902 71.3773 7.15671 71.5301 7.0942C71.6829 7.03169 71.8466 7.00023 72.0116 7.00166C72.1767 7.0031 72.3399 7.0374 72.4915 7.10255C72.6432 7.16771 72.7804 7.26242 72.8951 7.38116L84.4572 18.9433C84.6311 19.1172 84.7494 19.3387 84.7974 19.5798C84.8453 19.821 84.8207 20.0709 84.7266 20.298C84.6326 20.5252 84.4732 20.7193 84.2688 20.8559C84.0644 20.9925 83.8241 21.0655 83.5783 21.0655Z" fill="#53B51A"/>
<path d="M66.7273 33.4917C64.9243 33.4905 63.1774 32.8641 61.7843 31.7193C60.3913 30.5746 59.4382 28.9822 59.0876 27.2135C58.7369 25.4448 59.0104 23.6093 59.8613 22.0196C60.7123 20.43 62.0881 19.1845 63.7543 18.4955C65.4205 17.8065 67.2742 17.7165 68.9993 18.2408C70.7245 18.7652 72.2144 19.8715 73.2154 21.3713C74.2163 22.871 74.6663 24.6714 74.4887 26.4657C74.311 28.2601 73.5167 29.9373 72.2411 31.2116C71.5176 31.9361 70.658 32.5105 69.7117 32.9018C68.7655 33.2931 67.7513 33.4936 66.7273 33.4917ZM66.7273 20.3892C65.4992 20.3902 64.3094 20.8169 63.3606 21.5967C62.4118 22.3766 61.7628 23.4612 61.5241 24.6659C61.2853 25.8706 61.4717 27.1208 62.0514 28.2036C62.6311 29.2863 63.5682 30.1345 64.7032 30.6037C65.8381 31.073 67.1007 31.1342 68.2757 30.7769C69.4507 30.4197 70.4655 29.6661 71.1472 28.6445C71.8289 27.6229 72.1353 26.3966 72.0142 25.1745C71.8932 23.9523 71.3521 22.81 70.4832 21.942C69.9903 21.4486 69.4047 21.0574 68.7602 20.7909C68.1156 20.5244 67.4248 20.3879 66.7273 20.3892Z" fill="#53B51A"/>
<path d="M4.47569 89.7074C4.27368 89.7086 4.07444 89.6604 3.89521 89.5672C3.71598 89.474 3.56217 89.3385 3.44708 89.1725C3.33199 89.0065 3.25909 88.8149 3.23469 88.6144C3.21029 88.4139 3.23512 88.2104 3.30704 88.0216C3.9585 86.3072 9.74829 71.1856 12.6799 68.2541C14.2727 66.6658 16.4304 65.774 18.6797 65.774C20.9291 65.774 23.0868 66.6658 24.6796 68.2541C26.2681 69.8466 27.1601 72.004 27.1601 74.2533C27.1601 76.5026 26.2681 78.6601 24.6796 80.2526C21.7468 83.1854 6.62526 88.9752 4.91207 89.6254C4.77271 89.6787 4.6249 89.7065 4.47569 89.7074ZM18.6797 68.2541C17.892 68.253 17.1119 68.4074 16.3839 68.7084C15.656 69.0094 14.9947 69.4512 14.4378 70.0083C12.7445 71.7016 9.17391 79.8858 6.6464 86.2823C13.0441 83.7548 21.2284 80.1842 22.9217 78.4909C24.0443 77.3648 24.6747 75.8396 24.6747 74.2496C24.6747 72.6595 24.0443 71.1343 22.9217 70.0083C22.3648 69.4512 21.7035 69.0094 20.9755 68.7084C20.2476 68.4074 19.4675 68.253 18.6797 68.2541Z" fill="#53B51A"/>
</svg>
