<svg width="23" height="19" viewBox="0 0 23 19" fill="none" xmlns="http://www.w3.org/2000/svg">
<path d="M23 2.36856C22.1447 2.74375 21.2333 2.99244 20.2831 3.11319C21.2606 2.52956 22.0067 1.61244 22.3574 0.507C21.4461 1.05037 20.4398 1.43419 19.3674 1.64838C18.5021 0.726938 17.2687 0.15625 15.9232 0.15625C13.3127 0.15625 11.2111 2.27513 11.2111 4.87269C11.2111 5.24644 11.2427 5.60581 11.3203 5.94794C7.40025 5.75675 3.93156 3.87794 1.60137 1.01588C1.19456 1.72169 0.955938 2.52956 0.955938 3.39925C0.955938 5.03225 1.79688 6.47981 3.05037 7.31787C2.29281 7.3035 1.54962 7.08356 0.92 6.73712C0.92 6.7515 0.92 6.77019 0.92 6.78887C0.92 9.08025 2.55444 10.9835 4.69775 11.4219C4.31394 11.5269 3.89562 11.5772 3.4615 11.5772C3.15963 11.5772 2.85487 11.5599 2.56881 11.4967C3.17975 13.364 4.91338 14.7368 6.97475 14.7814C5.3705 16.0363 3.33356 16.7924 1.12844 16.7924C0.74175 16.7924 0.370875 16.7752 0 16.7277C2.08869 18.0747 4.56406 18.8438 7.2335 18.8438C15.9102 18.8438 20.654 11.6562 20.654 5.42613C20.654 5.21769 20.6468 5.01644 20.6367 4.81663C21.5726 4.1525 22.3589 3.32306 23 2.36856Z" fill="#484444"/>
</svg>
